# xmcd
#
# Track frame offsets:
#	150
#	16549
#	33034
#	48473
#	65014
#	79560
#	97409
#	112925
#	129197
#	144920
#	163241
#	179335
#	196783
#	212472
#	227304
#	244203
#	261502
#	278432
#	295122
#
# Disc length: 4127 seconds
#
# Revision: 0
# Processed by: cddbd v1.5.2PL0 Copyright (c) Steve Scherf et al.
# Submitted via: audiograbber 1.83.01
#
DISCID=f9101d13
DTITLE=Various Artist - Promo Only Country Radio - June 2008
DYEAR=2008
DGENRE=Country
TTITLE0=Alan Jackson - Good Time
TTITLE1=Jason Aldean - Relentless
TTITLE2=Brooks and Dunn - Put A Girl In It (Album Version)
TTITLE3=Eric Church - His Kind Of Money (My Kind Of Love)
TTITLE4=Neal McCoy - Rednecktified (Album Version)
TTITLE5=David Nail - I'm About To Come Alive
TTITLE6=Chuck Wicks - All I Ever Wanted
TTITLE7=Mark Chesnutt - When You Love Her Like Crazy
TTITLE8=Joshua Stevens - Rock 'N' Roll Pensacola
TTITLE9=Steve Holy - Might Have Been
TTITLE10=Chris Cagle - No Love Songs
TTITLE11=Rissi Palmer - No Air
TTITLE12=Bucky Covington - I'll Walk
TTITLE13=Ashley Gearing - Out The Window
TTITLE14=Drew Davis Band - How Do I
TTITLE15=Dolly Parton - Jesus and Gravity
TTITLE16=Lonestar - Let Me Love You
TTITLE17=Bailey Grey - Let The Music Play
TTITLE18=Adam Gregory - Crazy Days
EXTD=
EXTT0=
EXTT1=
EXTT2=
EXTT3=
EXTT4=
EXTT5=
EXTT6=
EXTT7=
EXTT8=
EXTT9=
EXTT10=
EXTT11=
EXTT12=
EXTT13=
EXTT14=
EXTT15=
EXTT16=
EXTT17=
EXTT18=
PLAYORDER=
